<svg width="373" height="313" viewBox="0 0 373 313" fill="none" xmlns="http://www.w3.org/2000/svg">
<path d="M372.5 -0.500017C372.5 -0.500017 372.5 142.5 372.5 211C372.5 279.5 372.5 312.752 372.5 312.752H1.00003C1.00003 312.752 -8.54856 268.554 1 245C29.9094 211.362 89.454 154.835 151.107 105.172C212.759 55.5093 280.482 6.91064 288.5 -0.500014C296.518 -7.91067 372.5 -0.500017 372.5 -0.500017Z" fill="#3D80E3"/>
<path opacity="0.2" d="M337 -17C337 -17 314.977 -5.50396 287.723 32.949C260.469 71.4019 287.723 261 287.723 261C287.723 261 19.2782 158.854 0 261C0 261 30.4969 107.389 337 -17Z" fill="#263238" stroke="#F7F8FC" stroke-width="0.0379109" stroke-linejoin="round"/>
<path d="M311 -11C311 -11 288.977 0.496042 261.723 38.949C234.469 77.4019 205.182 141.028 205.182 141.028C205.182 141.028 3.27824 190.854 -16 293C-16 293 4.49693 113.389 311 -11Z" fill="white" stroke="#F7F8FC" stroke-width="0.0379109" stroke-linejoin="round"/>
<path d="M35.3438 263.535L34.21 267.71C34.1514 267.933 34.0635 268.088 33.9463 268.176C33.8291 268.264 33.6533 268.308 33.4189 268.308C33.208 268.308 33.0439 268.252 32.9268 268.141C32.8096 268.029 32.7041 267.827 32.6104 267.534L30.5977 261.127H30.5186C30.2725 261.127 30.0967 261.08 29.9912 260.986C29.8799 260.887 29.8242 260.723 29.8242 260.494C29.8242 260.295 29.8828 260.143 30 260.037C30.1113 259.932 30.2783 259.879 30.501 259.879H32.8477C33.1641 259.879 33.3779 259.926 33.4893 260.02C33.6006 260.107 33.6562 260.266 33.6562 260.494C33.6562 260.635 33.624 260.758 33.5596 260.863C33.4951 260.963 33.4131 261.024 33.3135 261.048C33.2139 261.077 33.0967 261.098 32.9619 261.109C32.833 261.121 32.6748 261.127 32.4873 261.127H31.9775L33.4893 266.4L34.623 262.568C34.6875 262.346 34.7783 262.19 34.8955 262.103C35.0127 262.015 35.1855 261.971 35.4141 261.971C35.625 261.971 35.7891 262.029 35.9062 262.146C36.0293 262.258 36.1377 262.457 36.2314 262.744L37.3301 266.4L38.7803 261.127H38.5693H38.1914C37.7871 261.127 37.5146 261.083 37.374 260.995C37.2334 260.901 37.1631 260.734 37.1631 260.494C37.1631 260.26 37.2158 260.099 37.3213 260.011C37.4268 259.923 37.6318 259.879 37.9365 259.879H40.292C40.4736 259.879 40.6084 259.932 40.6963 260.037C40.79 260.143 40.8369 260.295 40.8369 260.494C40.8369 260.717 40.7842 260.875 40.6787 260.969C40.5732 261.062 40.374 261.115 40.0811 261.127L38.1035 267.71C38.0273 267.933 37.9307 268.088 37.8135 268.176C37.7021 268.264 37.5322 268.308 37.3037 268.308C37.0928 268.308 36.9258 268.249 36.8027 268.132C36.6797 268.021 36.5771 267.821 36.4951 267.534L35.3438 263.535ZM43.2363 264.326C43.2832 265.17 43.5674 265.823 44.0889 266.286C44.6162 266.743 45.334 266.972 46.2422 266.972C46.9277 266.972 47.6748 266.79 48.4834 266.427C49.292 266.058 49.7812 265.873 49.9512 265.873C50.127 265.873 50.2734 265.929 50.3906 266.04C50.5078 266.151 50.5664 266.289 50.5664 266.453C50.5664 266.623 50.5049 266.778 50.3818 266.919C50.2588 267.06 50.0625 267.197 49.793 267.332C49.207 267.619 48.6006 267.839 47.9736 267.991C47.3525 268.144 46.7344 268.22 46.1191 268.22C44.7832 268.22 43.7139 267.836 42.9111 267.068C42.1084 266.295 41.707 265.272 41.707 264.001C41.707 262.706 42.1318 261.657 42.9814 260.854C43.8311 260.052 44.9385 259.65 46.3037 259.65C47.54 259.65 48.5654 260.025 49.3799 260.775C50.1943 261.525 50.6016 262.434 50.6016 263.5C50.6016 263.828 50.5312 264.048 50.3906 264.159C50.2559 264.271 49.8838 264.326 49.2744 264.326H49.1426H43.2363ZM43.2803 263.175H49.002C48.9141 262.478 48.6211 261.918 48.123 261.496C47.6309 261.068 47.0244 260.854 46.3037 260.854C45.5244 260.854 44.8682 261.06 44.335 261.47C43.8018 261.88 43.4502 262.448 43.2803 263.175ZM65.9209 266.761H70.2979V266.304C70.2979 265.8 70.3418 265.475 70.4297 265.328C70.5234 265.176 70.6904 265.1 70.9307 265.1C71.1357 265.1 71.2881 265.158 71.3877 265.275C71.4873 265.393 71.5371 265.568 71.5371 265.803V267.262C71.5371 267.525 71.4609 267.716 71.3086 267.833C71.1562 267.944 70.8867 268 70.5 268H65.1826C64.8545 268 64.6055 267.933 64.4355 267.798C64.2656 267.663 64.1807 267.467 64.1807 267.209C64.1807 267.051 64.2158 266.901 64.2861 266.761C64.3623 266.62 64.5352 266.415 64.8047 266.146L69.832 261.127H65.6396V261.575C65.6396 262.085 65.5928 262.413 65.499 262.56C65.4111 262.706 65.2471 262.779 65.0068 262.779C64.7959 262.779 64.6377 262.721 64.5322 262.604C64.4268 262.486 64.374 262.311 64.374 262.076V260.582C64.374 260.342 64.4707 260.166 64.6641 260.055C64.8633 259.938 65.1738 259.879 65.5957 259.879H70.2979C70.708 259.879 71.0156 259.955 71.2207 260.107C71.4316 260.254 71.5371 260.474 71.5371 260.767C71.5371 260.937 71.4697 261.13 71.335 261.347C71.2061 261.558 71.0098 261.789 70.7461 262.041L65.9209 266.761ZM77.8301 257.348C77.8301 256.715 77.8857 256.316 77.9971 256.152C78.1143 255.988 78.3604 255.906 78.7354 255.906C79.0986 255.906 79.3389 255.977 79.4561 256.117C79.5732 256.252 79.6318 256.577 79.6318 257.093C79.6318 257.597 79.5762 257.91 79.4648 258.033C79.3594 258.15 79.1162 258.209 78.7354 258.209C78.3604 258.209 78.1143 258.153 77.9971 258.042C77.8857 257.931 77.8301 257.699 77.8301 257.348ZM79.4561 266.761H82.2773C82.5059 266.761 82.6729 266.811 82.7783 266.91C82.8896 267.004 82.9453 267.156 82.9453 267.367C82.9453 267.607 82.8926 267.774 82.7871 267.868C82.6875 267.956 82.5 268 82.2246 268H75.4043C75.1699 268 74.9941 267.947 74.877 267.842C74.7598 267.736 74.7012 267.578 74.7012 267.367C74.7012 267.162 74.7627 267.01 74.8857 266.91C75.0088 266.811 75.1934 266.761 75.4395 266.761H78.1201V261.127H76.4062C76.166 261.127 75.9814 261.074 75.8525 260.969C75.7295 260.857 75.668 260.699 75.668 260.494C75.668 260.289 75.7266 260.137 75.8438 260.037C75.9609 259.932 76.1367 259.879 76.3711 259.879H78.9463C79.1045 259.879 79.2275 259.911 79.3154 259.976C79.4092 260.04 79.4561 260.128 79.4561 260.239V266.761ZM89.7744 257.348C89.7744 256.721 89.833 256.325 89.9502 256.161C90.0674 255.991 90.3164 255.906 90.6973 255.906C91.0547 255.906 91.2891 255.974 91.4004 256.108C91.5176 256.243 91.5762 256.571 91.5762 257.093C91.5762 257.608 91.5234 257.925 91.418 258.042C91.3125 258.153 91.0723 258.209 90.6973 258.209C90.3164 258.209 90.0674 258.153 89.9502 258.042C89.833 257.925 89.7744 257.693 89.7744 257.348ZM92.1562 267.481C92.1562 268.226 92.1123 268.791 92.0244 269.178C91.9365 269.564 91.793 269.887 91.5938 270.145C91.2598 270.578 90.7969 270.906 90.2051 271.129C89.6133 271.357 88.9189 271.472 88.1221 271.472C87.46 271.472 86.9736 271.404 86.6631 271.27C86.3525 271.135 86.1973 270.927 86.1973 270.646C86.1973 270.464 86.2705 270.303 86.417 270.162C86.5693 270.027 86.748 269.96 86.9531 269.96C87.1113 269.96 87.3574 269.98 87.6914 270.021C88.0254 270.068 88.2773 270.092 88.4473 270.092C89.3027 270.092 89.9121 269.893 90.2754 269.494C90.6387 269.102 90.8203 268.419 90.8203 267.446V261.127H87.3838C86.8154 261.127 86.458 261.083 86.3115 260.995C86.1709 260.901 86.1006 260.734 86.1006 260.494C86.1006 260.289 86.1592 260.137 86.2764 260.037C86.3936 259.932 86.5693 259.879 86.8037 259.879H91.6465C91.8047 259.879 91.9277 259.911 92.0156 259.976C92.1094 260.04 92.1562 260.128 92.1562 260.239V267.481ZM96.9902 266.761V261.127H96.8232C96.4248 261.127 96.1494 261.08 95.9971 260.986C95.8506 260.893 95.7773 260.729 95.7773 260.494C95.7773 260.277 95.8389 260.122 95.9619 260.028C96.085 259.929 96.2842 259.879 96.5596 259.879H96.9727H97.8164C97.9746 259.879 98.0977 259.911 98.1855 259.976C98.2734 260.04 98.3174 260.128 98.3174 260.239V260.837C98.7451 260.438 99.167 260.146 99.583 259.958C100.005 259.765 100.441 259.668 100.893 259.668C101.777 259.668 102.472 259.943 102.976 260.494C103.485 261.045 103.74 261.807 103.74 262.779V266.761H104.153C104.446 266.761 104.657 266.811 104.786 266.91C104.915 267.004 104.979 267.156 104.979 267.367C104.979 267.596 104.909 267.76 104.769 267.859C104.634 267.953 104.391 268 104.039 268H102.097C101.722 268 101.481 267.956 101.376 267.868C101.271 267.78 101.218 267.613 101.218 267.367C101.218 267.139 101.279 266.98 101.402 266.893C101.525 266.805 101.757 266.761 102.097 266.761H102.404V263.104C102.404 262.419 102.249 261.897 101.938 261.54C101.628 261.177 101.177 260.995 100.585 260.995C99.9873 260.995 99.46 261.197 99.0029 261.602C98.5459 262.006 98.3174 262.507 98.3174 263.104V266.761H98.625C98.9766 266.761 99.2139 266.805 99.3369 266.893C99.46 266.98 99.5215 267.139 99.5215 267.367C99.5215 267.613 99.4688 267.78 99.3633 267.868C99.2578 267.956 99 268 98.5898 268H96.9902H96.5156C96.2754 268 96.0938 267.95 95.9707 267.851C95.8535 267.745 95.7949 267.584 95.7949 267.367C95.7949 267.133 95.8623 266.975 95.9971 266.893C96.1377 266.805 96.4072 266.761 96.8057 266.761H96.9902ZM118.91 264.326C118.957 265.17 119.241 265.823 119.763 266.286C120.29 266.743 121.008 266.972 121.916 266.972C122.602 266.972 123.349 266.79 124.157 266.427C124.966 266.058 125.455 265.873 125.625 265.873C125.801 265.873 125.947 265.929 126.064 266.04C126.182 266.151 126.24 266.289 126.24 266.453C126.24 266.623 126.179 266.778 126.056 266.919C125.933 267.06 125.736 267.197 125.467 267.332C124.881 267.619 124.274 267.839 123.647 267.991C123.026 268.144 122.408 268.22 121.793 268.22C120.457 268.22 119.388 267.836 118.585 267.068C117.782 266.295 117.381 265.272 117.381 264.001C117.381 262.706 117.806 261.657 118.655 260.854C119.505 260.052 120.612 259.65 121.978 259.65C123.214 259.65 124.239 260.025 125.054 260.775C125.868 261.525 126.275 262.434 126.275 263.5C126.275 263.828 126.205 264.048 126.064 264.159C125.93 264.271 125.558 264.326 124.948 264.326H124.816H118.91ZM118.954 263.175H124.676C124.588 262.478 124.295 261.918 123.797 261.496C123.305 261.068 122.698 260.854 121.978 260.854C121.198 260.854 120.542 261.06 120.009 261.47C119.476 261.88 119.124 262.448 118.954 263.175ZM131.83 266.761H134.748C134.977 266.761 135.144 266.811 135.249 266.91C135.36 267.004 135.416 267.156 135.416 267.367C135.416 267.607 135.363 267.774 135.258 267.868C135.158 267.956 134.971 268 134.695 268H128.947C128.719 268 128.546 267.947 128.429 267.842C128.312 267.736 128.253 267.578 128.253 267.367C128.253 267.162 128.312 267.01 128.429 266.91C128.552 266.811 128.739 266.761 128.991 266.761H130.521V261.127H129.923C129.354 261.127 129 261.083 128.859 260.995C128.719 260.901 128.648 260.734 128.648 260.494C128.648 260.289 128.704 260.137 128.815 260.037C128.933 259.932 129.108 259.879 129.343 259.879H131.347C131.505 259.879 131.625 259.911 131.707 259.976C131.789 260.034 131.83 260.122 131.83 260.239V261.733C132.387 261.036 132.967 260.518 133.57 260.178C134.174 259.838 134.824 259.668 135.521 259.668C136.043 259.668 136.465 259.773 136.787 259.984C137.109 260.195 137.271 260.468 137.271 260.802C137.271 261.019 137.188 261.212 137.024 261.382C136.866 261.546 136.69 261.628 136.497 261.628C136.362 261.628 136.134 261.54 135.812 261.364C135.495 261.183 135.211 261.092 134.959 261.092C134.502 261.092 134.019 261.256 133.509 261.584C133.005 261.906 132.445 262.419 131.83 263.122V266.761ZM157.573 263.104C157.573 262.278 157.497 261.722 157.345 261.435C157.198 261.142 156.943 260.995 156.58 260.995C156.146 260.995 155.801 261.183 155.543 261.558C155.291 261.933 155.165 262.448 155.165 263.104V266.761H155.323C155.681 266.761 155.918 266.805 156.035 266.893C156.158 266.975 156.22 267.133 156.22 267.367C156.22 267.578 156.17 267.736 156.07 267.842C155.971 267.947 155.818 268 155.613 268H154.497C154.245 268 154.072 267.941 153.979 267.824C153.891 267.707 153.847 267.455 153.847 267.068V266.813V263.104V262.419C153.847 261.979 153.747 261.634 153.548 261.382C153.349 261.124 153.076 260.995 152.73 260.995C152.467 260.995 152.224 261.074 152.001 261.232C151.784 261.385 151.597 261.613 151.438 261.918V266.761H151.764C152.115 266.761 152.353 266.805 152.476 266.893C152.599 266.98 152.66 267.139 152.66 267.367C152.66 267.607 152.61 267.774 152.511 267.868C152.411 267.956 152.221 268 151.939 268H149.602C149.373 268 149.203 267.95 149.092 267.851C148.986 267.745 148.934 267.584 148.934 267.367C148.934 267.133 149.001 266.975 149.136 266.893C149.276 266.805 149.546 266.761 149.944 266.761H150.12V261.127H149.962C149.552 261.127 149.271 261.08 149.118 260.986C148.972 260.893 148.898 260.729 148.898 260.494C148.898 260.289 148.957 260.137 149.074 260.037C149.191 259.932 149.367 259.879 149.602 259.879H150.946C151.14 259.879 151.266 259.914 151.324 259.984C151.389 260.049 151.427 260.189 151.438 260.406C151.679 260.148 151.937 259.958 152.212 259.835C152.487 259.712 152.798 259.65 153.144 259.65C153.554 259.65 153.891 259.741 154.154 259.923C154.424 260.099 154.623 260.368 154.752 260.731C154.998 260.362 155.282 260.09 155.604 259.914C155.927 259.738 156.296 259.65 156.712 259.65C157.468 259.65 158.019 259.896 158.364 260.389C158.716 260.881 158.892 261.678 158.892 262.779V266.761H159.032C159.396 266.761 159.639 266.805 159.762 266.893C159.885 266.98 159.946 267.139 159.946 267.367C159.946 267.578 159.894 267.736 159.788 267.842C159.683 267.947 159.527 268 159.322 268H158.259C158.024 268 157.852 267.93 157.74 267.789C157.629 267.648 157.573 267.426 157.573 267.121V263.104ZM162.152 264.326C162.199 265.17 162.483 265.823 163.005 266.286C163.532 266.743 164.25 266.972 165.158 266.972C165.844 266.972 166.591 266.79 167.399 266.427C168.208 266.058 168.697 265.873 168.867 265.873C169.043 265.873 169.189 265.929 169.307 266.04C169.424 266.151 169.482 266.289 169.482 266.453C169.482 266.623 169.421 266.778 169.298 266.919C169.175 267.06 168.979 267.197 168.709 267.332C168.123 267.619 167.517 267.839 166.89 267.991C166.269 268.144 165.65 268.22 165.035 268.22C163.699 268.22 162.63 267.836 161.827 267.068C161.024 266.295 160.623 265.272 160.623 264.001C160.623 262.706 161.048 261.657 161.897 260.854C162.747 260.052 163.854 259.65 165.22 259.65C166.456 259.65 167.481 260.025 168.296 260.775C169.11 261.525 169.518 262.434 169.518 263.5C169.518 263.828 169.447 264.048 169.307 264.159C169.172 264.271 168.8 264.326 168.19 264.326H168.059H162.152ZM162.196 263.175H167.918C167.83 262.478 167.537 261.918 167.039 261.496C166.547 261.068 165.94 260.854 165.22 260.854C164.44 260.854 163.784 261.06 163.251 261.47C162.718 261.88 162.366 262.448 162.196 263.175ZM172.963 264.326C173.01 265.17 173.294 265.823 173.815 266.286C174.343 266.743 175.061 266.972 175.969 266.972C176.654 266.972 177.401 266.79 178.21 266.427C179.019 266.058 179.508 265.873 179.678 265.873C179.854 265.873 180 265.929 180.117 266.04C180.234 266.151 180.293 266.289 180.293 266.453C180.293 266.623 180.231 266.778 180.108 266.919C179.985 267.06 179.789 267.197 179.52 267.332C178.934 267.619 178.327 267.839 177.7 267.991C177.079 268.144 176.461 268.22 175.846 268.22C174.51 268.22 173.44 267.836 172.638 267.068C171.835 266.295 171.434 265.272 171.434 264.001C171.434 262.706 171.858 261.657 172.708 260.854C173.558 260.052 174.665 259.65 176.03 259.65C177.267 259.65 178.292 260.025 179.106 260.775C179.921 261.525 180.328 262.434 180.328 263.5C180.328 263.828 180.258 264.048 180.117 264.159C179.982 264.271 179.61 264.326 179.001 264.326H178.869H172.963ZM173.007 263.175H178.729C178.641 262.478 178.348 261.918 177.85 261.496C177.357 261.068 176.751 260.854 176.03 260.854C175.251 260.854 174.595 261.06 174.062 261.47C173.528 261.88 173.177 262.448 173.007 263.175ZM198.029 266.778C198.855 266.778 199.526 266.518 200.042 265.996C200.558 265.475 200.815 264.798 200.815 263.966C200.815 263.151 200.552 262.48 200.024 261.953C199.503 261.426 198.838 261.162 198.029 261.162C197.215 261.162 196.547 261.426 196.025 261.953C195.51 262.475 195.252 263.146 195.252 263.966C195.252 264.786 195.51 265.46 196.025 265.987C196.547 266.515 197.215 266.778 198.029 266.778ZM195.287 261.145C195.615 260.734 196.025 260.421 196.518 260.204C197.01 259.987 197.566 259.879 198.188 259.879C199.365 259.879 200.347 260.277 201.132 261.074C201.917 261.865 202.31 262.847 202.31 264.019C202.31 265.173 201.905 266.151 201.097 266.954C200.294 267.757 199.312 268.158 198.152 268.158C197.537 268.158 197.001 268.05 196.544 267.833C196.087 267.616 195.712 267.288 195.419 266.849V267.552C195.419 267.71 195.39 267.824 195.331 267.895C195.278 267.965 195.188 268 195.059 268H193.45C193.222 268 193.052 267.947 192.94 267.842C192.829 267.736 192.773 267.578 192.773 267.367C192.773 267.133 192.841 266.975 192.976 266.893C193.11 266.805 193.377 266.761 193.775 266.761H193.96V257.761H193.793C193.395 257.761 193.122 257.714 192.976 257.62C192.829 257.526 192.756 257.362 192.756 257.128C192.756 256.917 192.814 256.759 192.932 256.653C193.049 256.548 193.222 256.495 193.45 256.495H194.786C194.962 256.495 195.088 256.524 195.164 256.583C195.246 256.642 195.287 256.732 195.287 256.855V261.145ZM205.395 264.326C205.441 265.17 205.726 265.823 206.247 266.286C206.774 266.743 207.492 266.972 208.4 266.972C209.086 266.972 209.833 266.79 210.642 266.427C211.45 266.058 211.939 265.873 212.109 265.873C212.285 265.873 212.432 265.929 212.549 266.04C212.666 266.151 212.725 266.289 212.725 266.453C212.725 266.623 212.663 266.778 212.54 266.919C212.417 267.06 212.221 267.197 211.951 267.332C211.365 267.619 210.759 267.839 210.132 267.991C209.511 268.144 208.893 268.22 208.277 268.22C206.941 268.22 205.872 267.836 205.069 267.068C204.267 266.295 203.865 265.272 203.865 264.001C203.865 262.706 204.29 261.657 205.14 260.854C205.989 260.052 207.097 259.65 208.462 259.65C209.698 259.65 210.724 260.025 211.538 260.775C212.353 261.525 212.76 262.434 212.76 263.5C212.76 263.828 212.689 264.048 212.549 264.159C212.414 264.271 212.042 264.326 211.433 264.326H211.301H205.395ZM205.438 263.175H211.16C211.072 262.478 210.779 261.918 210.281 261.496C209.789 261.068 209.183 260.854 208.462 260.854C207.683 260.854 207.026 261.06 206.493 261.47C205.96 261.88 205.608 262.448 205.438 263.175ZM217.269 266.761H221.646V266.304C221.646 265.8 221.689 265.475 221.777 265.328C221.871 265.176 222.038 265.1 222.278 265.1C222.483 265.1 222.636 265.158 222.735 265.275C222.835 265.393 222.885 265.568 222.885 265.803V267.262C222.885 267.525 222.809 267.716 222.656 267.833C222.504 267.944 222.234 268 221.848 268H216.53C216.202 268 215.953 267.933 215.783 267.798C215.613 267.663 215.528 267.467 215.528 267.209C215.528 267.051 215.563 266.901 215.634 266.761C215.71 266.62 215.883 266.415 216.152 266.146L221.18 261.127H216.987V261.575C216.987 262.085 216.94 262.413 216.847 262.56C216.759 262.706 216.595 262.779 216.354 262.779C216.144 262.779 215.985 262.721 215.88 262.604C215.774 262.486 215.722 262.311 215.722 262.076V260.582C215.722 260.342 215.818 260.166 216.012 260.055C216.211 259.938 216.521 259.879 216.943 259.879H221.646C222.056 259.879 222.363 259.955 222.568 260.107C222.779 260.254 222.885 260.474 222.885 260.767C222.885 260.937 222.817 261.13 222.683 261.347C222.554 261.558 222.357 261.789 222.094 262.041L217.269 266.761ZM229.178 257.348C229.178 256.715 229.233 256.316 229.345 256.152C229.462 255.988 229.708 255.906 230.083 255.906C230.446 255.906 230.687 255.977 230.804 256.117C230.921 256.252 230.979 256.577 230.979 257.093C230.979 257.597 230.924 257.91 230.812 258.033C230.707 258.15 230.464 258.209 230.083 258.209C229.708 258.209 229.462 258.153 229.345 258.042C229.233 257.931 229.178 257.699 229.178 257.348ZM230.804 266.761H233.625C233.854 266.761 234.021 266.811 234.126 266.91C234.237 267.004 234.293 267.156 234.293 267.367C234.293 267.607 234.24 267.774 234.135 267.868C234.035 267.956 233.848 268 233.572 268H226.752C226.518 268 226.342 267.947 226.225 267.842C226.107 267.736 226.049 267.578 226.049 267.367C226.049 267.162 226.11 267.01 226.233 266.91C226.356 266.811 226.541 266.761 226.787 266.761H229.468V261.127H227.754C227.514 261.127 227.329 261.074 227.2 260.969C227.077 260.857 227.016 260.699 227.016 260.494C227.016 260.289 227.074 260.137 227.191 260.037C227.309 259.932 227.484 259.879 227.719 259.879H230.294C230.452 259.879 230.575 259.911 230.663 259.976C230.757 260.04 230.804 260.128 230.804 260.239V266.761ZM240.551 261.18C239.783 261.18 239.156 261.417 238.67 261.892C238.184 262.366 237.94 262.981 237.94 263.737C237.94 264.481 238.184 265.094 238.67 265.574C239.156 266.049 239.783 266.286 240.551 266.286C241.312 266.286 241.937 266.049 242.423 265.574C242.915 265.094 243.161 264.481 243.161 263.737C243.161 262.993 242.915 262.381 242.423 261.9C241.937 261.42 241.312 261.18 240.551 261.18ZM244.365 267.534C244.365 268.354 244.324 268.935 244.242 269.274C244.16 269.62 244.02 269.922 243.82 270.18C243.492 270.613 243.032 270.941 242.44 271.164C241.849 271.393 241.151 271.507 240.349 271.507C239.681 271.507 239.191 271.442 238.881 271.313C238.576 271.185 238.424 270.979 238.424 270.698C238.424 270.517 238.497 270.355 238.644 270.215C238.796 270.08 238.975 270.013 239.18 270.013C239.338 270.013 239.581 270.033 239.909 270.074C240.237 270.121 240.486 270.145 240.656 270.145C241.523 270.145 242.139 269.945 242.502 269.547C242.865 269.148 243.047 268.466 243.047 267.499V266.436C242.689 266.852 242.294 267.156 241.86 267.35C241.427 267.543 240.929 267.64 240.366 267.64C239.271 267.64 238.362 267.276 237.642 266.55C236.927 265.817 236.569 264.892 236.569 263.772C236.569 262.647 236.938 261.716 237.677 260.978C238.415 260.233 239.329 259.861 240.419 259.861C240.87 259.861 241.31 259.946 241.737 260.116C242.171 260.28 242.607 260.532 243.047 260.872V260.239C243.047 260.116 243.085 260.025 243.161 259.967C243.243 259.908 243.369 259.879 243.539 259.879H244.866C245.101 259.879 245.276 259.932 245.394 260.037C245.511 260.137 245.569 260.289 245.569 260.494C245.569 260.729 245.496 260.893 245.35 260.986C245.203 261.08 244.928 261.127 244.523 261.127H244.365V267.534Z" fill="#F7F8FC" fill-opacity="0.4"/>
<path d="M264.859 141.337C264.743 141.514 262.946 143.205 262.061 144.028C262.004 143.816 262.38 143.191 262.795 142.874C263.21 142.557 263.586 141.932 263.77 141.017C263.918 140.286 263.39 139.255 263.108 138.831C262.655 136.897 261.125 133.491 260.417 132.03C259.367 131.768 257.162 130.523 256.632 130.166C256.102 129.809 251.672 127.414 250.718 127.172C249.764 126.93 245.054 124.93 244.071 124.832C243.285 124.754 244.808 126.444 244.894 127.095L242.836 126.487C242.563 126.348 241.825 125.982 241.054 125.627C240.091 125.183 239.813 124.325 239.9 123.892C239.97 123.546 240.764 123.415 241.153 123.394C241.795 123.439 243.125 123.51 243.302 123.426C243.479 123.341 243.697 123.288 243.784 123.272C243.861 123.305 244.046 123.365 244.169 123.35C244.603 123.187 244.584 123.283 245.249 123.217C245.673 122.852 246.956 121.875 247.689 121.555C247.914 121.517 248.398 121.367 248.537 121.075C249.175 119.901 249.676 119.652 250.322 119.181C250.839 118.804 251.566 118.563 251.865 118.49C252.019 118.554 252.433 118.654 252.858 118.539C253.282 118.425 253.548 118.428 253.629 118.444C254.239 118.567 255.638 118.869 256.355 119.094C257.251 119.374 256.596 119.392 259.851 120.649C262.965 121.716 263.401 123.684 263.23 124.534C263.339 124.906 263.81 125.732 264.828 126.057C266.6 126.464 266.734 127.543 266.975 128.092C267.167 128.531 267.598 131.055 267.789 132.262C267.821 132.602 267.988 133.414 268.404 133.938C268.82 134.463 268.84 134.844 268.798 134.969C268.791 135.084 268.697 135.469 268.373 136.085C267.967 136.855 268.092 137.481 268.034 137.769C267.975 138.058 267.628 138.289 267.358 138.885C267.141 139.362 266.959 139.623 266.894 139.693C266.55 139.991 265.827 140.61 265.689 140.702C265.515 140.818 265.004 141.115 264.859 141.337Z" fill="#0D0D0D" stroke="black" stroke-width="0.598859"/>
<path d="M246.667 125.355C246.575 125.327 246.479 125.298 246.378 125.268C244.608 124.806 244.635 126.203 244.888 127C244.211 126.764 240.609 125.237 240.43 125.051C240.25 124.864 240.2 124.754 240.15 124.644L240.15 124.644C240.099 124.533 239.877 123.838 240.542 123.771C241.047 123.721 244.475 124.698 246.378 125.268C246.469 125.292 246.566 125.321 246.667 125.355Z" fill="black" stroke="black" stroke-width="0.598859"/>
<path d="M255.315 126.996C257.919 128.802 259.833 131.111 260.465 132.039L262.859 137.662C262.773 137.177 262.683 134.218 262.39 133.679C262.025 133.004 259.899 129.622 259.167 129.024C258.436 128.426 257.049 127.095 255.249 125.581C253.448 124.066 249.991 122.569 248.69 122.307C247.649 122.097 246.129 122.826 245.499 123.217C248.805 122.981 252.06 124.738 255.315 126.996Z" fill="#202020" stroke="black" stroke-width="0.598859"/>
<path d="M264.206 130.639C265.73 133.029 266.472 137.805 266.653 139.895C266.438 140.135 265.943 140.633 265.689 140.702C265.371 140.788 265.081 141.231 264.907 141.346C264.734 141.461 262.129 144.192 262.052 144.076C261.975 143.96 262.023 143.72 262.728 142.96C264.156 141.345 263.665 140.295 263.675 139.996C263.683 139.757 263.313 139.055 263.127 138.734C262.977 138.236 262.678 137.181 262.686 136.943C262.696 136.644 262.727 134.497 262.468 133.794C262.209 133.091 260.005 130.093 259.822 129.756C259.676 129.486 259.043 128.898 258.744 128.638C258.221 128.165 257.123 127.18 256.915 127.018C256.655 126.815 256.039 126.39 255.076 125.446C254.036 124.635 249.943 122.559 248.652 122.249C247.619 122.001 246.12 122.791 245.5 123.217L245.307 123.178C245.989 122.614 247.431 121.492 247.747 121.516C248.217 121.571 248.599 121.103 248.731 120.863C248.981 120.696 250.437 120.605 254.252 121.574C259.021 122.785 262.301 127.651 264.206 130.639Z" fill="#393939" stroke="black" stroke-width="0.598859"/>
<path d="M255.747 125.689C255.472 125.803 254.565 124.815 254.146 124.307L253.668 124.542C253.95 124.866 254.848 125.701 255.263 126.079C255.539 125.901 256.023 125.575 255.747 125.689Z" fill="#757F3F" stroke="black" stroke-width="0.179658"/>
<path d="M252.532 121.116C252.666 120.408 253.17 120.511 253.406 120.65C253.274 120.49 252.93 120.184 252.61 120.243C252.289 120.301 252.195 120.692 252.188 120.88C251.29 120.61 251.13 121.237 251.162 121.584C250.357 121.352 250.34 122.005 250.414 122.308C250.39 122.02 250.723 121.837 250.855 121.819C251.213 121.775 251.493 121.935 251.97 122.046C252.352 122.134 252.885 122.543 253.104 122.736C253.116 122.66 252.692 122.337 252.479 122.186C252.454 122.125 252.431 121.826 252.532 121.116Z" fill="#F79329" stroke="black" stroke-width="0.119772"/>
<path d="M254.109 124.283C255.611 123.092 254.558 121.569 253.575 120.738C252.424 119.925 252.349 121.361 252.456 122.18L253.07 122.716C252.705 122.415 251.774 121.802 250.974 121.755C250.174 121.707 250.156 122.501 250.526 123.066C251.406 124.409 252.521 125.541 254.109 124.283Z" fill="#ED6C30" stroke="black" stroke-width="0.179658"/>
<path d="M254.169 125.58C255.19 125.496 256.473 125.577 256.012 126.119C254.778 127.571 252.166 125.907 252.153 125.918C252.107 125.898 252.298 125.734 254.169 125.58Z" fill="#757F3F" stroke="black" stroke-width="0.179658"/>
<path d="M255.096 125.609C256.263 125.607 256.135 125.977 255.924 126.162C255.803 126.021 255.854 126.081 254.894 125.907C254.126 125.768 252.892 125.877 252.361 125.969C252.312 125.978 252.164 125.918 252.247 125.888C252.424 125.823 253.637 125.611 255.096 125.609Z" fill="#BDCF46"/>
<path d="M252.205 121.927C252.107 121.846 251.639 121.636 251.417 121.541C251.435 120.989 251.883 121 252.105 121.075C252.075 121.151 252.159 121.674 252.205 121.927Z" fill="#ED6C30"/>
<path d="M211.449 277.243C211.449 277.243 206.644 280.162 204.922 281.019C203.2 281.876 199.252 282.733 199.252 283.767C199.252 284.801 203.724 285.311 206.984 285.311C210.244 285.311 218.493 284.794 219.528 284.603C220.563 284.412 220.556 283.399 220.386 281.855C219.989 279.935 219.473 278.042 218.841 276.187L211.449 277.243Z" fill="#D33833" stroke="#D33833" stroke-width="0.0276346" stroke-miterlimit="10"/>
<path d="M241.526 275.89C241.526 275.89 242.043 283.441 244.276 284.128C246.508 284.816 249.945 284.646 250.285 282.067C250.625 279.489 248.223 273.141 248.223 273.141C248.223 273.141 242.901 276.06 241.526 275.89Z" fill="#D33833" stroke="#D33833" stroke-width="0.0276346" stroke-miterlimit="10"/>
<path d="M211.59 199.412C211.59 199.412 199.054 227.748 199.054 232.707C199.054 237.665 198.536 239.082 200.081 242.837C201.626 246.591 209.23 273.956 209.23 273.956L210.265 277.732C211.66 278.748 213.344 279.291 215.07 279.283C217.99 279.283 218.677 279.453 219.025 277.909C219.372 276.365 219.882 275.16 219.542 273.786C219.202 272.412 218.833 271.895 218.167 269.493C217.501 267.092 216.275 264.853 216.105 259.016C215.935 253.179 213.575 237.913 213.575 237.056C213.575 236.199 223.447 218.801 223.447 218.801C223.447 218.801 223.617 232.714 224.652 235.972C225.686 239.231 238.259 267.807 238.259 267.807C238.259 267.807 238.606 269.862 238.967 271.413C239.329 272.964 240.172 275.706 240.172 275.706C241.039 276.419 242.14 276.785 243.262 276.733C245.324 276.733 248.762 274.154 248.762 274.154C248.762 274.154 248.421 271.583 248.244 269.352C248.067 267.12 246.529 264.712 246.529 263.684C246.529 262.657 244.765 249.021 243.397 245.266C242.029 241.512 238.585 233.592 238.436 232.048C238.287 230.503 238.946 219.169 238.946 219.169L240.321 207.665L211.59 199.412Z" fill="#1F1F89" stroke="#F7F8FC" stroke-width="0.0276346" stroke-miterlimit="10"/>
<path d="M232.391 143.025C232.391 143.025 222.051 136.089 220.549 134.283C219.075 132.575 217.718 130.769 216.488 128.878C215.588 127.369 213.249 124.394 211.449 124.394C209.649 124.394 209.202 125.364 208.302 125.811C207.402 126.257 206.12 127.596 206.268 128.347C206.417 129.098 206.113 130.068 207.013 130.521C207.718 131.004 208.299 131.648 208.706 132.399L207.891 135.232C207.891 135.232 210.322 135.176 211.222 135.176C212.032 135.135 212.838 135.034 213.632 134.871H214.532C214.532 134.871 222.639 146.035 223.986 147.99C225.332 149.945 226.509 151.61 227.409 152.949C228.309 154.288 232.37 158.552 232.37 158.552C232.37 158.552 238.784 159.516 239.839 156.059C240.895 152.602 243.702 150.746 242.951 149.839C242.199 148.933 232.391 143.025 232.391 143.025Z" fill="white" stroke="#263238" stroke-width="0.08" stroke-miterlimit="10"/>
<path d="M236.331 145.447C232.192 147.452 229.719 151.554 228.465 154.295C229.988 156.073 232.391 158.581 232.391 158.581C232.391 158.581 238.805 159.544 239.861 156.087C240.917 152.63 243.723 150.774 242.972 149.868C242.539 149.358 239.159 147.204 236.331 145.447Z" fill="#FFD400" stroke="#263238" stroke-width="0.0276346" stroke-miterlimit="10"/>
<path d="M210.903 170.963C210.903 170.963 205.836 156.661 204.964 154.217C204.093 151.773 203.745 150.732 203.745 150.732C203.745 150.732 205.836 146.892 205.836 145.32C205.836 143.747 203.044 142.182 203.044 142.182L201.626 139.39C201.626 139.39 199.011 139.568 198.834 140.609C198.741 141.214 198.565 141.803 198.31 142.359C198.31 142.359 195 144.278 195 145.844C195 147.409 198.834 152.822 198.834 152.822C198.834 152.822 202.151 169.745 203.377 174.279C204.603 178.812 209.684 183.105 211.229 181.561C212.774 180.017 210.903 170.963 210.903 170.963Z" fill="white" stroke="#263238" stroke-width="0.0276346" stroke-miterlimit="10"/>
<path d="M246.295 127.475C246.295 127.475 243.546 128.184 242.858 130.047C242.401 131.472 241.704 132.809 240.796 134C240.278 134.51 237.359 134.17 237.359 135.374C237.476 136.443 237.766 137.486 238.216 138.462C238.216 138.462 236.161 147.048 237.188 147.388C238.216 147.728 241.653 149.28 241.653 149.28L240.945 151.341L251.426 153.912L252.454 150.484C252.454 150.484 258.832 149.775 262.248 145.844C265.664 141.912 267.74 135.027 264.998 130.047C262.255 125.067 253.489 121.291 249.017 123.183C244.545 125.074 246.295 127.475 246.295 127.475Z" fill="white" stroke="#263238" stroke-width="0.0276346" stroke-miterlimit="10"/>
<path d="M262.27 145.844C265.707 141.898 267.762 135.027 265.019 130.047C262.277 125.067 253.51 121.291 249.038 123.183C244.566 125.074 246.296 127.475 246.296 127.475C246.296 127.475 248.868 125.924 248.351 127.475C247.833 129.027 245.608 129.36 246.466 130.564C247.323 131.768 246.636 133.653 245.948 134.51C245.261 135.367 243.886 136.401 244.921 136.918C245.955 137.435 247.323 135.374 248.181 136.21C249.038 137.046 248.528 140.156 247.472 141.36C246.834 142.092 246.001 142.628 245.07 142.904C245.07 142.904 244.212 146.34 247.642 149.088C251.072 151.837 252.454 150.463 252.454 150.463C252.454 150.463 258.832 149.797 262.27 145.844Z" fill="#BE9837" stroke="#263238" stroke-width="0.0276346" stroke-miterlimit="10"/>
<path d="M212.278 195.467L211.25 200.099C215.319 203.598 220.236 205.968 225.509 206.971C234.099 208.515 239.251 207.998 240.279 207.679C241.306 207.36 242.341 202.359 242.341 202.359C242.341 202.359 238.563 205.788 229.287 202.182C223.701 200.008 218.257 197.486 212.987 194.631L212.278 195.467Z" fill="#FFD400" stroke="#F7F8FC" stroke-width="0.0276346" stroke-miterlimit="10"/>
<path d="M242.688 154.465C242.688 154.465 236.501 152.064 233.411 154.982C230.321 157.901 227.224 164.765 226.02 168.718C224.815 172.671 217.437 186.746 216.232 189.318C215.028 191.889 209.854 192.753 211.272 195.162C212.689 197.57 218.146 202.883 229.478 204.428C240.81 205.972 244.403 203.344 245.466 200.964C246.529 198.583 245.466 196.494 246.501 194.949C247.536 193.405 257.663 177.438 258.698 171.573C259.732 165.707 261.1 162.13 258.698 159.034C256.295 155.938 242.688 154.465 242.688 154.465Z" fill="#FFD400" stroke="#263238" stroke-width="0.0276346" stroke-miterlimit="10"/>
<path d="M243.064 184.685C243.843 184.061 244.588 183.417 245.261 182.758" stroke="#F7F8FC" stroke-width="0.0276346" stroke-miterlimit="10"/>
<path d="M224.822 194.439C224.822 194.439 233.638 191.202 240.661 186.435" stroke="#F7F8FC" stroke-width="0.0276346" stroke-miterlimit="10"/>
<path d="M240.109 189.629C240.109 189.629 232.207 193.752 228.259 195.467" stroke="#F7F8FC" stroke-width="0.0276346" stroke-miterlimit="10"/>
<path d="M235.296 172.805L222.589 176.425L221.044 177.792L218.805 178.656C218.805 178.656 216.41 180.675 215.198 180.675H214.489C214.489 180.675 212.597 181.88 211.222 181.54C209.847 181.2 208.819 177.247 209.507 172.954C210.194 168.661 210.017 170.545 211.052 170.375C212.087 170.205 212.079 170.035 212.079 170.035C212.079 170.035 212.937 168.661 213.624 168.491C214.273 168.447 214.923 168.564 215.517 168.831C215.517 168.831 225.311 161.967 228.053 159.041C229.999 157.063 232.136 155.281 234.432 153.721C234.432 153.721 236.834 151.66 238.726 153.891" fill="#FFD400"/>
<path d="M235.296 172.805L222.589 176.425L221.044 177.792L218.805 178.656C218.805 178.656 216.41 180.675 215.198 180.675H214.489C214.489 180.675 212.597 181.88 211.222 181.54C209.847 181.2 208.819 177.247 209.507 172.954C210.194 168.661 210.017 170.545 211.052 170.375C212.087 170.205 212.079 170.035 212.079 170.035C212.079 170.035 212.937 168.661 213.624 168.491C214.273 168.447 214.923 168.564 215.517 168.831C215.517 168.831 225.311 161.967 228.053 159.041C229.999 157.063 232.136 155.281 234.432 153.721C234.432 153.721 236.834 151.66 238.726 153.891" stroke="#263238" stroke-width="0.0276346" stroke-miterlimit="10"/>
<path d="M211.038 177.728C211.307 178.689 211.936 179.509 212.795 180.017" stroke="#F7F8FC" stroke-width="0.0276346" stroke-miterlimit="10"/>
<path d="M211.768 171.466C211.224 172.794 210.901 174.2 210.811 175.632" stroke="#F7F8FC" stroke-width="0.0276346" stroke-miterlimit="10"/>
<path d="M214 170.05C214 170.05 213.292 173.655 215.885 175.54" stroke="#F7F8FC" stroke-width="0.0276346" stroke-miterlimit="10"/>
<path d="M257.975 156.491C257.975 156.491 249.903 152.715 247.344 152.028C244.786 151.341 241.505 149.967 239.102 150.654C236.7 151.341 234.808 152.028 234.46 153.742C234.113 155.457 235.835 153.225 236.863 156.661C237.89 160.097 241.335 170.397 248.372 170.914C255.409 171.431 259.002 165.417 259.371 162.328C259.74 159.24 259.173 157.518 257.975 156.491Z" fill="white" stroke="#263238" stroke-width="0.0276346" stroke-miterlimit="10"/>
</svg>
